<?xml version="1.0" encoding="utf-8"?>
<!-- Generator: Adobe Illustrator 24.2.3, SVG Export Plug-In . SVG Version: 6.00 Build 0)  -->
<svg version="1.1" id="Capa_1" xmlns="http://www.w3.org/2000/svg" xmlns:xlink="http://www.w3.org/1999/xlink" x="0px" y="0px"
	 viewBox="0 0 902.9 902.9" style="enable-background:new 0 0 902.9 902.9;" xml:space="preserve">
<style type="text/css">
	.st0{fill:#888888;}
</style>
<g>
	<g>
		<path class="st0" d="M231.4,577.8L231.4,577.8h596.7l74.8-399.1l-703.2,0.5l-26-102H0l0,68h120.9L231.4,577.8L231.4,577.8z
			 M821,246.8l-49.3,263H284.2l-67.1-262.6L821,246.8z"/>
		<path class="st0" d="M433.2,716.9c0-14.4-2.8-28.1-7.9-40.7h208.1c-5.1,12.5-7.9,26.3-7.9,40.7c0,59.9,48.8,108.7,108.7,108.7
			c59.9,0,108.7-48.8,108.7-108.7s-48.7-108.7-108.7-108.7H324.5c-59.9,0-108.7,48.8-108.7,108.7s48.7,108.7,108.7,108.7
			C384.4,825.6,433.2,776.9,433.2,716.9z M734.2,676.2c22.4,0,40.7,18.2,40.7,40.7s-18.4,40.7-40.8,40.7
			c-22.4,0-40.7-18.2-40.7-40.7S711.7,676.2,734.2,676.2z M324.4,676.2c22.4,0,40.7,18.2,40.7,40.7c0,22.4-18.3,40.7-40.7,40.7
			s-40.7-18.2-40.7-40.7S302,676.2,324.4,676.2z"/>
	</g>
</g>
</svg>
