<svg width="175" height="175" viewBox="0 0 175 175" fill="none" xmlns="http://www.w3.org/2000/svg">
<path d="M87.5 37.5C81.3194 37.5 75.2775 39.3328 70.1385 42.7666C64.9994 46.2004 60.994 51.081 58.6288 56.7911C56.2636 62.5013 55.6447 68.7847 56.8505 74.8466C58.0563 80.9085 61.0326 86.4767 65.403 90.8471C69.7734 95.2175 75.3416 98.1938 81.4035 99.3995C87.4654 100.605 93.7487 99.9865 99.4589 97.6212C105.169 95.256 110.05 91.2506 113.483 86.1116C116.917 80.9725 118.75 74.9307 118.75 68.75C118.75 60.462 115.458 52.5134 109.597 46.6529C103.737 40.7924 95.7881 37.5 87.5 37.5Z" fill="#888888"/>
<path d="M87.5 0C70.1942 0 53.2769 5.13179 38.8876 14.7464C24.4983 24.361 13.2832 38.0267 6.66058 54.0152C0.0379123 70.0037 -1.69488 87.5971 1.68133 104.57C5.05753 121.544 13.3911 137.135 25.6282 149.372C37.8653 161.609 53.4563 169.943 70.4296 173.319C87.403 176.695 104.996 174.962 120.985 168.339C136.973 161.717 150.639 150.502 160.254 136.112C169.868 121.723 175 104.806 175 87.5C174.974 64.3017 165.746 42.0611 149.343 25.6574C132.939 9.25369 110.698 0.026467 87.5 0V0ZM137.45 143.288C137.325 135.09 133.985 127.269 128.149 121.51C122.314 115.751 114.449 112.515 106.25 112.5H68.75C60.5512 112.515 52.6865 115.751 46.8506 121.51C41.0147 127.269 37.6746 135.09 37.55 143.288C26.2161 133.167 18.2234 119.843 14.6303 105.079C11.0372 90.3154 12.0132 74.8084 17.429 60.6116C22.8449 46.4148 32.4452 34.1979 44.9586 25.5785C57.4721 16.9592 72.3084 12.3439 87.5032 12.3439C102.698 12.3439 117.534 16.9592 130.048 25.5785C142.561 34.1979 152.161 46.4148 157.577 60.6116C162.993 74.8084 163.969 90.3154 160.376 105.079C156.783 119.843 148.79 133.167 137.456 143.288H137.45Z" fill="#888888"/>
</svg>
