<svg width="220" height="212" viewBox="0 0 220 212" fill="none" xmlns="http://www.w3.org/2000/svg">
<path d="M41.932 52.576H188.713C191.687 52.5761 194.628 53.1994 197.347 54.4058C200.065 55.6121 202.501 57.3747 204.496 59.5799C206.492 61.7851 208.003 64.384 208.933 67.2091C209.863 70.0342 210.19 73.0228 209.894 75.9822L203.508 139.846C202.983 145.099 200.524 149.969 196.61 153.512C192.696 157.054 187.605 159.016 182.326 159.016H80.6762C75.753 159.018 70.9814 157.313 67.1737 154.193C63.366 151.072 60.7576 146.728 59.7926 141.9L41.932 52.576Z" stroke="#888888" stroke-width="20" stroke-linejoin="round"/>
<path d="M41.932 52.576L33.3104 18.0575C32.7338 15.7558 31.4046 13.7127 29.534 12.2529C27.6633 10.793 25.3585 10.0001 22.9857 10H10M73.864 201.592H95.152M159.016 201.592H180.304" stroke="#888888" stroke-width="20" stroke-linecap="round" stroke-linejoin="round"/>
</svg>
