<svg width="162" height="154" viewBox="0 0 162 154" fill="none" xmlns="http://www.w3.org/2000/svg">
<path d="M143.333 76.6667H64.1667M126.667 101.667L151.667 76.6667L126.667 51.6667M85 35V26.6667C85 22.2464 83.2441 18.0072 80.1184 14.8816C76.9928 11.7559 72.7536 10 68.3333 10H26.6667C22.2464 10 18.0072 11.7559 14.8816 14.8816C11.7559 18.0072 10 22.2464 10 26.6667V126.667C10 131.087 11.7559 135.326 14.8816 138.452C18.0072 141.577 22.2464 143.333 26.6667 143.333H68.3333C72.7536 143.333 76.9928 141.577 80.1184 138.452C83.2441 135.326 85 131.087 85 126.667V118.333" stroke="#888888" stroke-width="20" stroke-linecap="round" stroke-linejoin="round"/>
</svg>
