<svg width="167" height="167" viewBox="0 0 167 167" fill="none" xmlns="http://www.w3.org/2000/svg">
<path fill-rule="evenodd" clip-rule="evenodd" d="M25 16.6667H141.667C143.877 16.6667 145.996 17.5446 147.559 19.1074C149.122 20.6702 150 22.7899 150 25V141.667C150 143.877 149.122 145.996 147.559 147.559C145.996 149.122 143.877 150 141.667 150H25C22.7899 150 20.6702 149.122 19.1074 147.559C17.5446 145.996 16.6667 143.877 16.6667 141.667V25C16.6667 22.7899 17.5446 20.6702 19.1074 19.1074C20.6702 17.5446 22.7899 16.6667 25 16.6667V16.6667ZM0 25C0 18.3696 2.63392 12.0107 7.32233 7.32233C12.0107 2.63392 18.3696 0 25 0H141.667C148.297 0 154.656 2.63392 159.344 7.32233C164.033 12.0107 166.667 18.3696 166.667 25V141.667C166.667 148.297 164.033 154.656 159.344 159.344C154.656 164.033 148.297 166.667 141.667 166.667H25C18.3696 166.667 12.0107 164.033 7.32233 159.344C2.63392 154.656 0 148.297 0 141.667V25ZM83.3333 83.3333C60.325 83.3333 41.6667 60.95 41.6667 33.3333H58.3333C58.3333 54.7167 72.25 66.6667 83.3333 66.6667C94.4167 66.6667 108.333 54.7167 108.333 33.3333H125C125 60.95 106.342 83.3333 83.3333 83.3333Z" fill="#888888"/>
</svg>
