<svg width="150" height="150" viewBox="0 0 150 150" fill="none" xmlns="http://www.w3.org/2000/svg">
<path fill-rule="evenodd" clip-rule="evenodd" d="M0 75C0 72.3478 0.658481 69.8043 1.83058 67.9289C3.00269 66.0536 4.5924 65 6.25 65H143.75C145.408 65 146.997 66.0536 148.169 67.9289C149.342 69.8043 150 72.3478 150 75C150 77.6522 149.342 80.1957 148.169 82.0711C146.997 83.9464 145.408 85 143.75 85H6.25C4.5924 85 3.00269 83.9464 1.83058 82.0711C0.658481 80.1957 0 77.6522 0 75Z" fill="#44D62C"/>
<path fill-rule="evenodd" clip-rule="evenodd" d="M74.5 -4.37114e-07C77.1522 -3.21184e-07 79.6957 0.658481 81.5711 1.83058C83.4464 3.00269 84.5 4.5924 84.5 6.25L84.5 143.75C84.5 145.408 83.4464 146.997 81.5711 148.169C79.6957 149.342 77.1522 150 74.5 150C71.8478 150 69.3043 149.342 67.4289 148.169C65.5536 146.997 64.5 145.408 64.5 143.75L64.5 6.25C64.5 4.5924 65.5536 3.00269 67.4289 1.83058C69.3043 0.658481 71.8478 -5.53044e-07 74.5 -4.37114e-07Z" fill="#44D62C"/>
</svg>
